HIERARCHY
ROOT Hips
{
	OFFSET 0.00000 0.00000 0.00000
	CHANNELS 6 Xposition Yposition Zposition Zrotation Yrotation Xrotation 
	JOINT LHipJoint
	{
		OFFSET 0 0 0
		CHANNELS 3 Zrotation Yrotation Xrotation
		JOINT LeftUpLeg
		{
			OFFSET 1.62329 -1.80800 0.67318
			CHANNELS 3 Zrotation Yrotation Xrotation
			JOINT LeftLeg
			{
				OFFSET 2.57139 -7.06484 0.00000
				CHANNELS 3 Zrotation Yrotation Xrotation
				JOINT LeftFoot
				{
					OFFSET 2.52017 -6.92413 0.00000
					CHANNELS 3 Zrotation Yrotation Xrotation
					JOINT LeftToeBase
					{
						OFFSET 0.23295 -0.64001 2.10214
						CHANNELS 3 Zrotation Yrotation Xrotation
						End Site
						{
							OFFSET 0.00000 -0.00000 1.10139
						}
					}
				}
			}
		}
	}
	JOINT RHipJoint
	{
		OFFSET 0 0 0
		CHANNELS 3 Zrotation Yrotation Xrotation
		JOINT RightUpLeg
		{
			OFFSET -1.48061 -1.80800 0.67318
			CHANNELS 3 Zrotation Yrotation Xrotation
			JOINT RightLeg
			{
				OFFSET -2.63258 -7.23296 0.00000
				CHANNELS 3 Zrotation Yrotation Xrotation
				JOINT RightFoot
				{
					OFFSET -2.54779 -7.00000 0.00000
					CHANNELS 3 Zrotation Yrotation Xrotation
					JOINT RightToeBase
					{
						OFFSET -0.23067 -0.63376 2.12161
						CHANNELS 3 Zrotation Yrotation Xrotation
						End Site
						{
							OFFSET -0.00000 -0.00000 1.11000
						}
					}
				}
			}
		}
	}
	JOINT LowerBack
	{
		OFFSET 0 0 0
		CHANNELS 3 Zrotation Yrotation Xrotation
		JOINT Spine
		{
			OFFSET -0.02108 2.07573 -0.16981
			CHANNELS 3 Zrotation Yrotation Xrotation
			JOINT Spine1
			{
				OFFSET 0.05070 2.08439 -0.03141
				CHANNELS 3 Zrotation Yrotation Xrotation
				JOINT Neck
				{
					OFFSET 0 0 0
					CHANNELS 3 Zrotation Yrotation Xrotation
					JOINT Neck1
					{
						OFFSET -0.10731 1.60408 0.31370
						CHANNELS 3 Zrotation Yrotation Xrotation
						JOINT Head
						{
							OFFSET 0.08411 1.65679 -0.30822
							CHANNELS 3 Zrotation Yrotation Xrotation
							End Site
							{
								OFFSET 0.03911 1.69149 -0.14146
							}
						}
					}
				}
				JOINT LeftShoulder
				{
					OFFSET 0 0 0
					CHANNELS 3 Zrotation Yrotation Xrotation
					JOINT LeftArm
					{
						OFFSET 3.52315 0.73219 -0.54694
						CHANNELS 3 Zrotation Yrotation Xrotation
						JOINT LeftForeArm
						{
							OFFSET 5.32462 -0.00000 -0.00000
							CHANNELS 3 Zrotation Yrotation Xrotation
							JOINT LeftHand
							{
								OFFSET 3.48402 -0.00000 -0.00000
								CHANNELS 3 Zrotation Yrotation Xrotation
								JOINT LeftFingerBase
								{
									OFFSET 0 0 0
									CHANNELS 3 Zrotation Yrotation Xrotation
									JOINT LeftHandIndex1
									{
										OFFSET 0.57248 -0.00000 -0.00000
										CHANNELS 3 Zrotation Yrotation Xrotation
										End Site
										{
											OFFSET 0.46154 -0.00000 -0.00000
										}
									}
								}
								JOINT LThumb
								{
									OFFSET 0 0 0
									CHANNELS 3 Zrotation Yrotation Xrotation
									End Site
									{
										OFFSET 0.46859 -0.00000 0.46859
									}
								}
							}
						}
					}
				}
				JOINT RightShoulder
				{
					OFFSET 0 0 0
					CHANNELS 3 Zrotation Yrotation Xrotation
					JOINT RightArm
					{
						OFFSET -3.41766 0.93592 -0.10019
						CHANNELS 3 Zrotation Yrotation Xrotation
						JOINT RightForeArm
						{
							OFFSET -5.33589 -0.00000 -0.00000
							CHANNELS 3 Zrotation Yrotation Xrotation
							JOINT RightHand
							{
								OFFSET -3.64134 -0.00000 -0.00000
								CHANNELS 3 Zrotation Yrotation Xrotation
								JOINT RightFingerBase
								{
									OFFSET 0 0 0
									CHANNELS 3 Zrotation Yrotation Xrotation
									JOINT RightHandIndex1
									{
										OFFSET -0.73481 -0.00000 -0.00000
										CHANNELS 3 Zrotation Yrotation Xrotation
										End Site
										{
											OFFSET -0.59242 -0.00000 -0.00000
										}
									}
								}
								JOINT RThumb
								{
									OFFSET 0 0 0
									CHANNELS 3 Zrotation Yrotation Xrotation
									End Site
									{
										OFFSET -0.60147 -0.00000 0.60147
									}
								}
							}
						}
					}
				}
			}
		}
	}
}
MOTION
Frames: 14
Frame Time: .0083333
-2.3968 17.5696 0.9692 1.6414 -2.3791 1.8363 0.0000 0.0000 0.0000 -14.9215 -8.8418 -3.4890 1.8243 8.4902 24.2131 0.6098 6.3285 -18.4005 1.7840 -8.4008 -23.9383 0.0000 0.0000 0.0000 13.9837 5.6623 -9.7579 -3.5962 -11.6028 34.3409 -1.7565 4.5620 -24.0151 -0.1707 -2.6619 7.3388 -5.6859 0.2958 4.8142 4.4062 0.2091 -1.9713 7.8509 0.3593 -4.8157 -7.7931 -0.7877 -22.4629 2.0889 1.1163 25.2744 2.2765 0.0130 12.0081 -0.0000 -0.0000 0.0000 1.0392 5.1335 -43.4332 31.7845 -42.3747 -12.5954 -0.0000 -0.0000 7.6889 22.4145 8.7016 3.5707 -7.1250 0.0000 -0.0000 -3.9049 39.3518 0.5445 -0.0000 -0.0000 0.0000 25.7754 -7.4456 -45.7595 -29.9143 40.8199 -11.3536 0.0000 -0.0000 -5.4985 -35.5088 0.8841 -0.6308 7.1250 -0.0000 -0.0000 -6.9596 -28.8644 -2.7538
-2.4032 17.5734 0.9545 1.6030 -2.2857 1.9164 0.0000 0.0000 0.0000 -14.8210 -8.9031 -3.6634 1.8287 8.4998 24.2427 0.6131 6.2653 -18.3872 1.7548 -8.3355 -23.7379 0.0000 0.0000 0.0000 14.0498 5.6941 -9.8425 -3.5822 -11.5826 34.2711 -1.7502 4.3813 -23.9966 -0.1610 -2.5851 7.1256 -5.8933 0.3170 4.8085 4.0586 0.2083 -1.9597 7.5945 0.3578 -4.7986 -7.7599 -0.7603 -22.5876 2.2353 1.1116 25.2440 2.3261 0.0351 12.0184 -0.0000 0.0000 0.0000 0.2383 5.2355 -43.3782 31.7809 -42.3718 -12.5929 -0.0000 -0.0000 7.2839 22.6296 9.7165 4.0245 -7.1250 0.0000 -0.0000 -3.8389 40.4603 0.4304 -0.0000 0.0000 0.0000 25.2262 -7.2295 -45.5978 -30.1917 41.0572 -11.5354 0.0000 -0.0000 -5.0665 -35.6734 0.8732 -0.6268 7.1250 -0.0000 -0.0000 -7.0881 -28.8743 -2.8037
-2.4073 17.5719 0.9429 1.5120 -2.1787 1.8986 0.0000 0.0000 0.0000 -14.6874 -8.9807 -3.6879 1.8366 8.5171 24.2960 0.6295 6.1085 -18.4452 1.7082 -8.2298 -23.4143 0.0000 0.0000 0.0000 14.1712 5.6101 -9.8144 -3.5635 -11.5557 34.1779 -1.7455 4.2700 -23.9800 -0.1533 -2.5230 6.9535 -6.0647 0.3327 4.8631 3.7489 0.2010 -1.9695 7.3607 0.3557 -4.8376 -7.6638 -0.7408 -22.5122 2.2948 1.0784 25.1354 2.3245 0.0410 11.9621 0.0000 -0.0000 0.0000 -0.6077 5.3022 -43.4436 31.7812 -42.3721 -12.5931 -0.0000 -0.0000 7.2998 22.6033 10.2226 4.2257 -7.1250 0.0000 -0.0000 -3.9266 41.0015 0.3879 0.0000 -0.0000 0.0000 24.6149 -7.0067 -45.4502 -30.4656 41.2891 -11.7156 0.0000 -0.0000 -4.5239 -35.7641 0.7015 -0.5053 7.1250 -0.0000 -0.0000 -7.1743 -29.0823 -2.8026
-2.4109 17.5740 0.9324 1.2136 -2.0836 1.9556 0.0000 0.0000 0.0000 -14.3255 -9.1117 -3.8071 1.8509 8.5483 24.3921 0.6341 6.0861 -18.4770 1.7081 -8.2295 -23.4134 0.0000 0.0000 0.0000 14.5182 5.6242 -9.8206 -3.5406 -11.5225 34.0632 -1.7408 4.2221 -23.9537 -0.1652 -2.6185 7.2184 -6.0405 0.3350 4.7796 3.5482 0.2009 -1.9596 7.1292 0.3483 -4.7772 -7.5636 -0.6921 -22.5561 2.2724 1.1220 25.1147 2.3065 0.0679 11.9602 -0.0000 -0.0000 0.0000 -1.5458 5.3533 -43.5984 31.7753 -42.3673 -12.5891 -0.0000 -0.0000 7.3234 22.5328 10.1183 4.1688 -7.1250 0.0000 -0.0000 -3.9752 40.8830 0.4043 -0.0000 -0.0000 0.0000 23.9462 -6.6877 -45.4988 -30.7713 41.5454 -11.9178 0.0000 -0.0000 -3.8570 -35.8683 0.8433 -0.6097 7.1250 -0.0000 -0.0000 -7.2419 -28.9070 -2.8597
-2.4172 17.5773 0.9201 0.9683 -2.0646 1.9563 0.0000 0.0000 0.0000 -14.0287 -9.1668 -3.8898 1.8651 8.5793 24.4878 0.6327 6.1480 -18.5092 1.7320 -8.2840 -23.5802 0.0000 0.0000 0.0000 14.8327 5.6970 -9.7831 -3.5187 -11.4908 33.9534 -1.7258 4.0563 -23.8725 -0.1571 -2.5538 7.0388 -6.1117 0.3984 4.7376 3.3393 0.2742 -1.9216 6.9384 0.3800 -4.7242 -7.7049 -0.7189 -22.5174 2.4930 1.0667 25.0505 2.4028 0.0613 11.9275 0.0000 0.0000 0.0000 -2.4193 5.3977 -43.5735 31.7182 -42.3214 -12.5507 -0.0000 -0.0000 7.1381 22.5721 10.0668 4.1558 -7.1250 0.0000 -0.0000 -3.9339 40.8313 0.4051 0.0000 0.0000 0.0000 23.2496 -6.5222 -45.4735 -31.0517 41.7779 -12.1042 0.0000 -0.0000 -3.3469 -35.8218 1.0097 -0.7287 7.1250 -0.0000 -0.0000 -7.1903 -28.7043 -2.8739
-2.4221 17.5791 0.9063 0.7343 -2.0032 2.0097 0.0000 0.0000 0.0000 -13.7232 -9.2807 -4.0170 1.8811 8.6139 24.5948 0.6469 6.0630 -18.5970 1.6936 -8.1964 -23.3122 0.0000 0.0000 0.0000 15.1426 5.6985 -9.8440 -3.4953 -11.4567 33.8360 -1.7159 3.6191 -23.8759 -0.1121 -2.1588 5.9448 -6.1521 0.4291 4.7203 3.0812 0.3024 -1.8916 6.6819 0.3881 -4.6850 -7.6987 -0.6976 -22.5849 2.7048 1.0380 24.9884 2.4765 0.0797 11.9148 -0.0000 0.0000 0.0000 -3.1913 5.5227 -43.5308 31.6272 -42.2479 -12.4894 -0.0000 -0.0000 6.7488 22.5968 10.0749 4.1642 -7.1250 0.0000 -0.0000 -3.9132 40.8424 0.4019 -0.0000 0.0000 0.0000 22.6896 -6.3542 -45.3264 -31.4059 42.0684 -12.3409 0.0000 -0.0000 -2.9343 -35.8618 0.9879 -0.7141 7.1250 -0.0000 -0.0000 -7.2231 -28.7300 -2.8828
-2.4246 17.5791 0.8944 0.6851 -1.8812 2.0513 0.0000 0.0000 0.0000 -13.6471 -9.4646 -4.0875 1.8932 8.6400 24.6757 0.6507 6.0688 -18.6425 1.6390 -8.0697 -22.9260 0.0000 0.0000 0.0000 15.2212 5.6146 -9.9123 -3.4775 -11.4307 33.7464 -1.7154 3.3430 -23.9232 -0.0795 -1.8187 5.0048 -6.3475 0.4484 4.6492 2.7653 0.3063 -1.8344 6.4553 0.3847 -4.5840 -7.7040 -0.6894 -22.5823 2.9340 0.9833 24.8749 2.5527 0.0890 11.8701 -0.0000 0.0000 0.0000 -4.0585 5.5951 -43.5466 31.6458 -42.2630 -12.5020 -0.0000 -0.0000 6.4117 22.8294 10.1278 4.2336 -7.1250 0.0000 -0.0000 -3.7150 40.9204 0.3743 -0.0000 0.0000 0.0000 22.1119 -6.2037 -45.2227 -31.7102 42.3149 -12.5453 0.0000 -0.0000 -2.5403 -36.0615 1.0712 -0.7799 7.1250 -0.0000 -0.0000 -7.3695 -28.6235 -2.9608
-2.4264 17.5800 0.8842 0.4410 -1.7539 2.0539 0.0000 0.0000 0.0000 -13.3612 -9.5599 -4.1594 1.9079 8.6714 24.7729 0.6489 6.0866 -18.6369 1.6620 -8.1234 -23.0895 0.0000 0.0000 0.0000 15.5087 5.5352 -9.8857 -3.4572 -11.4008 33.6437 -1.7153 3.2484 -23.9409 -0.0772 -1.7919 4.9309 -6.3822 0.4218 4.5946 2.5824 0.2646 -1.7761 6.2829 0.3562 -4.4835 -7.7573 -0.6682 -22.5242 3.0037 1.0068 24.7765 2.5889 0.1063 11.8181 -0.0000 -0.0000 0.0000 -5.0582 5.8147 -43.5980 31.6809 -42.2913 -12.5255 -0.0000 -0.0000 6.2076 22.7312 10.1325 4.2153 -7.1250 0.0000 -0.0000 -3.8022 40.9165 0.3835 -0.0000 -0.0000 0.0000 21.3587 -5.8620 -45.1040 -31.9784 42.5300 -12.7262 0.0000 -0.0000 -2.2411 -36.3742 0.9583 -0.7058 7.1250 -0.0000 -0.0000 -7.6221 -28.7550 -3.0400
-2.4303 17.5819 0.8709 0.3464 -1.5780 2.0919 0.0000 0.0000 0.0000 -13.2081 -9.6432 -4.3239 1.9230 8.7038 24.8730 0.6471 5.9917 -18.5462 1.7203 -8.2575 -23.4990 0.0000 0.0000 0.0000 15.6327 5.4187 -9.9351 -3.4356 -11.3689 33.5342 -1.7037 3.0192 -23.9017 -0.0577 -1.5503 4.2645 -6.5544 0.4676 4.6081 2.2842 0.3015 -1.7664 6.0610 0.3744 -4.4859 -7.7243 -0.6941 -22.6042 3.1597 0.9203 24.8078 2.6298 0.0914 11.8491 0.0000 0.0000 0.0000 -5.8376 5.7634 -43.5405 31.6254 -42.2465 -12.4883 -0.0000 -0.0000 5.7650 22.7194 10.1976 4.2395 -7.1250 0.0000 -0.0000 -3.8209 40.9853 0.3789 0.0000 0.0000 0.0000 20.8116 -5.8015 -45.0206 -32.3367 42.8140 -12.9691 0.0000 -0.0000 -1.9658 -36.6229 0.8306 -0.6173 7.1250 -0.0000 -0.0000 -7.8273 -28.9070 -3.0947
-2.4349 17.5834 0.8551 0.0518 -1.3119 2.0627 0.0000 0.0000 0.0000 -12.8368 -9.8347 -4.4220 1.9460 8.7527 25.0247 0.6513 5.8853 -18.5114 1.7598 -8.3466 -23.7720 0.0000 0.0000 0.0000 15.9887 5.2954 -9.8839 -3.4060 -11.3250 33.3840 -1.7040 2.9374 -23.9210 -0.0806 -1.8310 5.0388 -6.4992 0.4662 4.7331 2.0418 0.2855 -1.7361 5.7736 0.3611 -4.5196 -7.6322 -0.6755 -22.7090 3.2700 0.8903 24.7645 2.6514 0.1032 11.8530 0.0000 0.0000 0.0000 -6.6073 5.7578 -43.4912 31.5533 -42.1882 -12.4398 -0.0000 -0.0000 5.2688 22.6588 10.5439 4.3684 -7.1250 0.0000 -0.0000 -3.9201 41.3518 0.3534 0.0000 0.0000 0.0000 20.2858 -5.7427 -44.8673 -32.7679 43.1509 -13.2631 0.0000 -0.0000 -1.7884 -36.5921 0.7027 -0.5217 7.1250 -0.0000 -0.0000 -7.8164 -29.0655 -3.0607
-2.4392 17.5841 0.8435 -0.0982 -1.1012 2.1315 0.0000 0.0000 0.0000 -12.6138 -9.9823 -4.6256 1.9671 8.7973 25.1632 0.6557 5.7752 -18.4774 1.7646 -8.3575 -23.8054 0.0000 0.0000 0.0000 16.1733 5.2558 -9.9152 -3.3815 -11.2885 33.2591 -1.7112 2.9051 -23.9802 -0.0924 -1.9601 5.3953 -6.6427 0.4487 4.6087 1.7940 0.2520 -1.6696 5.5951 0.3370 -4.3735 -7.6899 -0.6863 -22.7659 3.5409 0.8219 24.7055 2.7515 0.1054 11.8422 0.0000 -0.0000 0.0000 -7.5251 5.7857 -43.6609 31.5469 -42.1829 -12.4355 -0.0000 -0.0000 4.8027 22.8676 10.8545 4.5410 -7.1250 0.0000 -0.0000 -3.7767 41.7056 0.3074 0.0000 -0.0000 0.0000 19.6676 -5.6351 -44.5649 -33.1458 43.4418 -13.5222 0.0000 -0.0000 -1.8873 -36.9744 0.9578 -0.7210 7.1250 -0.0000 -0.0000 -8.0856 -28.7419 -3.2307
-2.4423 17.5851 0.8318 -0.3855 -0.9258 2.1155 0.0000 0.0000 0.0000 -12.2548 -10.0074 -4.7891 1.9938 8.8531 25.3370 0.6578 5.6635 -18.4189 1.8007 -8.4380 -24.0526 0.0000 0.0000 0.0000 16.5151 5.2041 -9.8556 -3.3550 -11.2487 33.1233 -1.7110 2.7537 -24.0109 -0.0769 -1.7893 4.9236 -6.6351 0.4706 4.6604 1.5721 0.2697 -1.6377 5.3545 0.3410 -4.3700 -7.6160 -0.6476 -22.7613 3.6767 0.8099 24.7131 2.7888 0.1256 11.8431 -0.0000 0.0000 0.0000 -8.3726 5.8160 -43.6258 31.5465 -42.1826 -12.4352 -0.0000 -0.0000 4.0329 22.7287 11.1436 4.6286 -7.1250 0.0000 -0.0000 -3.9403 42.0024 0.2919 -0.0000 0.0000 0.0000 19.1144 -5.5876 -44.3026 -33.5559 43.7530 -13.8050 0.0000 -0.0000 -2.0579 -37.2574 1.2261 -0.9324 7.1250 -0.0000 -0.0000 -8.2745 -28.4018 -3.3750
-2.4452 17.5869 0.8173 -0.4461 -0.7757 2.1874 0.0000 0.0000 0.0000 -12.1275 -10.0884 -5.0509 2.0204 8.9085 25.5094 0.6685 5.5099 -18.4225 1.7916 -8.4178 -23.9905 0.0000 0.0000 0.0000 16.5778 5.0344 -9.9839 -3.3330 -11.2156 33.0104 -1.6879 2.6398 -23.8669 -0.0721 -1.7325 4.7670 -6.8550 0.5054 4.7101 1.2875 0.2861 -1.6543 5.1778 0.3531 -4.4183 -7.6529 -0.6324 -22.7043 3.9448 0.7621 24.6369 2.8861 0.1387 11.8025 0.0000 -0.0000 0.0000 -9.1854 5.8306 -43.5513 31.4686 -42.1194 -12.3830 -0.0000 -0.0000 3.4608 22.6775 11.3418 4.6977 -7.1250 0.0000 -0.0000 -4.0142 42.2099 0.2768 0.0000 -0.0000 0.0000 18.5310 -5.4416 -44.2660 -33.9115 44.0191 -14.0516 0.0000 -0.0000 -1.8262 -37.1430 1.1485 -0.8698 7.1250 -0.0000 -0.0000 -8.1951 -28.5013 -3.3225
-2.4489 17.5883 0.8014 -0.6437 -0.6421 2.2477 0.0000 0.0000 0.0000 -11.8481 -10.1724 -5.3058 2.0517 8.9730 25.7108 0.6785 5.3749 -18.4343 1.7860 -8.4054 -23.9524 0.0000 0.0000 0.0000 16.7999 4.8787 -10.0736 -3.3092 -11.1795 32.8875 -1.6653 2.5815 -23.7136 -0.0659 -1.6568 4.5582 -6.9173 0.5024 4.6988 1.0352 0.2688 -1.6394 4.9485 0.3408 -4.3924 -7.6014 -0.6078 -22.6382 4.0641 0.7382 24.5439 2.9155 0.1509 11.7539 -0.0000 -0.0000 0.0000 -10.0057 5.9650 -43.5021 31.4716 -42.1219 -12.3850 -0.0000 -0.0000 2.8345 22.5741 11.8048 4.8612 -7.1250 0.0000 -0.0000 -4.1752 42.6953 0.2379 -0.0000 -0.0000 0.0000 17.9557 -5.1865 -44.2377 -34.2459 44.2661 -14.2845 0.0000 -0.0000 -1.3291 -37.0567 1.0671 -0.8057 7.1250 -0.0000 -0.0000 -8.1375 -28.6045 -3.2786
